<svg xmlns="http://www.w3.org/2000/svg" width="1024" height="1024" viewBox="0 0 1024 1024" version="1.1">
	<path d="M 491.548 166.250 C 491.334 166.938, 490.869 200.284, 490.515 240.353 L 489.871 313.206 518.186 312.717 C 534.403 312.436, 548.348 311.742, 550.826 311.091 C 574.435 304.894, 583.791 294.661, 584.788 273.945 C 585.131 266.830, 584.819 262.890, 583.574 258.608 C 581.399 251.125, 575.563 244.637, 568.867 242.259 C 563.918 240.501, 562.518 239, 565.829 239 C 569.046 239, 576.751 233.064, 579.839 228.206 C 583.822 221.941, 585.177 216.349, 585.149 206.295 C 585.082 182.258, 573.382 170.336, 546 166.403 C 533.314 164.581, 492.104 164.465, 491.548 166.250 M 409.500 166.698 C 403.721 167.464, 395.449 170.205, 389.687 173.261 C 378.606 179.141, 369.632 192.687, 366.537 208.208 C 362.965 226.119, 366.085 265.832, 372.508 284.216 C 379.973 305.582, 397.227 317, 422.050 317 C 450.816 317, 467.491 304.092, 472.442 277.992 C 475.365 262.581, 473.918 218.821, 469.976 203.405 C 467.458 193.560, 463.695 186.676, 457.448 180.482 C 446.617 169.745, 427.646 164.291, 409.500 166.698 M 645.500 171.697 C 629.275 174.011, 616.095 182.783, 609.169 195.877 C 603.441 206.706, 600.672 219.606, 598.947 243.500 C 596.570 276.428, 600.962 294.983, 614.101 307.515 C 621.313 314.394, 629.905 318.450, 641.577 320.485 C 652.296 322.355, 657.596 322.369, 666.174 320.551 C 684.931 316.575, 697.324 304.217, 702.406 284.420 C 705.033 274.188, 708.052 248.387, 708.658 231 C 709.132 217.376, 708.938 213.379, 707.542 208.071 C 701.660 185.693, 684.292 173.215, 656.959 171.729 C 652.307 171.476, 647.150 171.462, 645.500 171.697 M 900.750 189.032 C 892.638 196.805, 886 203.531, 886 203.978 C 886 204.871, 908.186 214, 910.355 214 C 912.238 214, 939.235 186.204, 938.754 184.761 C 938.387 183.662, 921.968 176.402, 917.500 175.363 C 915.988 175.012, 911.901 178.347, 900.750 189.032 M 333.418 177.019 C 329.522 177.430, 324.013 178.086, 321.175 178.476 L 316.015 179.186 309.410 199.843 C 305.777 211.204, 301.670 224.100, 300.284 228.500 C 297.192 238.313, 296.330 239.367, 295.472 234.380 C 295.105 232.246, 294.146 227.575, 293.340 224 C 292.535 220.425, 290.372 209.915, 288.534 200.646 C 286.695 191.376, 284.759 183.359, 284.232 182.832 C 283.241 181.841, 253.232 186.560, 251.721 187.945 C 251.292 188.337, 252.776 198.073, 255.018 209.579 C 258.923 229.613, 268.692 282.833, 274.621 316.363 C 276.540 327.216, 277.879 332.400, 278.860 332.777 C 280.382 333.360, 307.714 329.620, 308.631 328.702 C 308.928 328.405, 307.598 319.688, 305.676 309.331 C 299.253 274.727, 297.801 266.096, 298.201 264.897 C 298.419 264.243, 307.980 276.823, 319.447 292.853 C 330.913 308.884, 340.850 322, 341.529 322 C 343.081 322, 368.548 318.205, 372.250 317.423 C 373.762 317.103, 375 316.461, 375 315.997 C 375 315.036, 358.361 292.282, 337.901 265.264 C 330.255 255.168, 324 246.306, 324 245.570 C 324 244.835, 329.323 231.243, 335.829 215.367 C 349.942 180.925, 351 178.248, 351 176.980 C 351 175.882, 344.043 175.898, 333.418 177.019 M 735.516 182.975 C 734.118 185.236, 719.682 270.402, 717.846 287.221 C 714.301 319.681, 729.149 338.059, 762.162 342.073 C 785.206 344.875, 803.099 335.704, 810.466 317.314 C 811.967 313.566, 816.061 298.030, 819.565 282.788 C 823.068 267.546, 828.689 243.534, 832.056 229.427 C 835.545 214.808, 837.802 203.402, 837.305 202.905 C 835.985 201.585, 804.703 194.894, 803.868 195.753 C 803.043 196.601, 796.651 227.006, 788.468 269 C 781.983 302.282, 780.373 306.673, 773.422 310.038 C 762.727 315.215, 750.006 307.448, 750.002 295.738 C 750 292.296, 753.151 272.671, 757.987 246 C 764.090 212.334, 768.151 187.817, 767.698 187.364 C 767.114 186.781, 740.498 182, 737.833 182 C 736.890 182, 735.847 182.439, 735.516 182.975 M 212.239 196.427 C 204.396 198.221, 197.761 199.906, 197.495 200.172 C 197.229 200.438, 198.329 206.470, 199.939 213.578 C 202.789 226.159, 217.081 291.067, 224.638 325.750 C 227.531 339.027, 228.754 343.004, 229.948 343.017 C 230.802 343.027, 237.957 341.802, 245.849 340.296 L 260.199 337.557 259.597 333.028 C 259.267 330.538, 255.152 310.050, 250.453 287.500 C 245.755 264.950, 241.514 244.475, 241.029 242 C 240.543 239.525, 238.088 227.732, 235.573 215.792 C 233.058 203.853, 231 193.841, 231 193.542 C 231 192.487, 226.335 193.204, 212.239 196.427 M 523.222 208.600 L 523.500 223.500 528.500 223.824 C 537.390 224.401, 543.849 223.107, 547.251 220.067 C 549.928 217.676, 550.403 216.492, 550.730 211.399 C 551.483 199.691, 546.611 195.234, 532.025 194.289 L 522.945 193.700 523.222 208.600 M 411.352 198.040 C 407.368 199.260, 402.442 204.818, 400.995 209.723 C 398.192 219.223, 399.087 251.694, 402.574 267.024 C 405.267 278.865, 411.242 285, 420.083 285 C 428.456 285, 433.339 282.022, 437.302 274.500 C 439.096 271.093, 439.469 268.320, 439.812 255.794 C 440.256 239.612, 438.816 221.111, 436.507 213.336 C 434.764 207.466, 431.589 202.490, 427.791 199.678 C 424.686 197.377, 416.254 196.537, 411.352 198.040 M 648.422 202.418 C 643.634 204.503, 639.470 210.385, 637.155 218.330 C 632.043 235.884, 629.702 272.430, 633.205 280 C 637.485 289.247, 649.280 293.659, 657.929 289.248 C 666.188 285.037, 669.632 275.923, 672.459 250.798 C 674.265 234.742, 674.441 220.638, 672.912 214.564 C 671.444 208.734, 666.816 203.321, 662.206 202.040 C 657.222 200.656, 652.150 200.795, 648.422 202.418 M 157.500 208.923 C 148.700 211.568, 131.375 216.750, 119 220.439 C 106.625 224.128, 96.170 227.467, 95.766 227.858 C 95.103 228.500, 101.308 254.072, 102.656 256.253 C 103.345 257.368, 104.312 257.141, 125.500 250.892 C 134.850 248.134, 143.335 245.635, 144.355 245.338 C 146.674 244.664, 147.150 241.647, 136.397 295.734 C 131.779 318.962, 128.002 339.437, 128.005 341.234 C 128.012 345.522, 132.846 368.243, 133.997 369.396 C 134.524 369.923, 147.765 366.352, 166.196 360.712 C 183.413 355.443, 200.988 350.133, 205.250 348.912 C 210.560 347.391, 213 346.211, 213 345.166 C 213 342.477, 207.788 321.544, 206.815 320.323 C 206.188 319.536, 204.987 319.429, 203.189 320.001 C 195.652 322.393, 162.063 332, 161.233 332 C 160.625 332, 160.610 330.073, 161.190 326.750 C 162.298 320.403, 174.661 256.344, 176.002 250 C 179.277 234.507, 181.075 222.189, 180.519 219.055 C 178.949 210.211, 176.713 204.001, 175.118 204.057 C 174.228 204.088, 166.300 206.278, 157.500 208.923 M 856.637 213.250 C 854.465 220.824, 847.590 246.906, 836.009 291.500 C 830.439 312.950, 824.752 334.430, 823.372 339.234 C 821.991 344.037, 821.122 348.389, 821.441 348.904 C 821.760 349.420, 826.178 351.192, 831.260 352.843 C 836.342 354.493, 850.893 359.254, 863.596 363.422 C 876.298 367.590, 887.562 371, 888.626 371 C 890.224 371, 891.209 368.918, 894.281 359.046 C 896.326 352.472, 898 346.209, 898 345.128 C 898 343.025, 896.007 342.253, 870.500 334.477 C 863.900 332.465, 858.176 330.513, 857.780 330.139 C 857.383 329.765, 858.692 323.731, 860.688 316.730 C 863.340 307.424, 864.735 304, 865.874 304 C 866.731 304, 873.072 305.772, 879.966 307.937 C 899.285 314.005, 897.582 314.513, 901.550 301.500 C 906.478 285.337, 906.373 286.115, 903.772 285.026 C 902.522 284.504, 894.820 281.997, 886.655 279.455 C 874.400 275.641, 871.898 274.544, 872.314 273.167 C 872.592 272.250, 874.237 266.550, 875.971 260.500 C 877.704 254.450, 879.520 249.098, 880.006 248.606 C 880.523 248.082, 889.142 250.528, 900.816 254.512 C 911.776 258.252, 921.364 261.066, 922.122 260.764 C 923.945 260.040, 932.651 232.239, 931.424 231.061 C 930.200 229.886, 862.432 208, 860.017 208 C 858.613 208, 857.764 209.318, 856.637 213.250 M 523 267 L 523 283 531.766 283 C 541.849 283, 546.102 281.345, 549.750 276.001 C 552.736 271.626, 552.861 262.924, 550.005 258.241 C 546.536 252.551, 542.750 251.008, 532.250 251.004 L 523 251 523 267 M 495.667 355.667 C 495.300 356.033, 495 376.741, 495 401.684 L 495 447.036 519.250 446.768 L 543.500 446.500 543.785 436.250 L 544.070 426 530.385 426 L 516.701 426 517.423 390.500 L 518.145 355 507.239 355 C 501.241 355, 496.033 355.300, 495.667 355.667 M 578.425 357.765 C 577.833 358.169, 574.731 368.625, 571.531 381 C 558.188 432.596, 555 445.246, 555 446.587 C 555 447.710, 557.054 448, 565.021 448 C 576.617 448, 575.798 448.741, 578.556 435.750 L 580.201 428 591.391 428 L 602.581 428 603.865 436.750 C 605.839 450.199, 604.601 449, 616.508 449 C 622.214 449, 627.068 448.663, 627.295 448.250 C 627.707 447.503, 610.811 361.556, 609.665 358.570 C 609.155 357.240, 606.801 357.002, 594.281 357.015 C 586.152 357.024, 579.016 357.361, 578.425 357.765 M 393 363.190 C 388.875 363.702, 385.180 364.437, 384.789 364.822 C 383.736 365.859, 390.626 448.863, 391.871 450.149 C 392.446 450.741, 411.942 449.456, 412.495 448.789 C 412.626 448.630, 412.169 441.975, 411.479 434 C 410.789 426.025, 410.440 419.138, 410.705 418.695 C 412.048 416.447, 414.681 419.739, 421.747 432.500 L 429.500 446.500 440.500 446.172 C 446.550 445.991, 451.821 445.536, 452.212 445.159 C 452.604 444.783, 448.487 437.310, 443.063 428.551 L 433.201 412.627 437.606 409.264 C 444.389 404.084, 446.447 399.280, 446.370 388.795 C 446.328 383.089, 445.709 378.528, 444.574 375.556 C 442.537 370.222, 436.685 364.821, 431.142 363.161 C 426.620 361.806, 404.001 361.823, 393 363.190 M 674.398 376.687 C 674.770 383.734, 675.486 394.900, 675.990 401.500 C 676.493 408.100, 677.461 423.286, 678.141 435.247 C 678.821 447.207, 679.646 457.427, 679.973 457.957 C 680.893 459.445, 705.189 462.211, 706.431 460.969 C 709.446 457.954, 749.442 377.025, 748.387 376.074 C 747.899 375.633, 742.604 374.454, 736.621 373.453 C 723.702 371.291, 724.786 370.584, 720.021 384.288 C 715.276 397.936, 700.867 433, 700.004 433 C 699.263 433, 698.280 416.233, 697.108 383.569 L 696.500 366.639 694 365.975 C 692.625 365.610, 687.500 364.988, 682.611 364.592 L 673.722 363.873 674.398 376.687 M 359.917 366.377 C 359.688 366.584, 356.820 367.037, 353.544 367.383 C 350.268 367.729, 347.271 368.347, 346.884 368.756 C 346.496 369.165, 347.922 382.325, 350.052 398 C 354.820 433.077, 354.819 433.052, 351.082 437.234 C 348.595 440.018, 347.491 440.500, 343.605 440.500 C 334.258 440.500, 333.033 437.238, 327.465 397.500 C 325.461 383.200, 323.509 371.170, 323.127 370.767 C 322.297 369.889, 302.938 372.662, 301.775 373.825 C 300.799 374.801, 310.375 435.632, 312.487 441.881 C 313.302 444.291, 315.433 448.171, 317.223 450.503 C 323.224 458.319, 330.079 461.298, 341.757 461.162 C 356.631 460.989, 366.137 455.994, 371.481 445.544 C 374.289 440.055, 374.482 438.954, 374.466 428.587 C 374.452 419.392, 372 391.349, 369.410 370.750 L 368.812 366 364.573 366 C 362.241 366, 360.146 366.170, 359.917 366.377 M 248 380.374 C 228.366 385.779, 220.518 399.596, 223.909 422.788 C 229.438 460.601, 239.135 474, 260.971 474 C 270.105 474, 278.504 471.629, 284.970 467.225 C 295.838 459.824, 298.978 447.603, 295.563 426 C 291.190 398.336, 285.950 387.642, 273.801 381.588 C 269.452 379.421, 267.298 379.011, 260.554 379.067 C 256.124 379.105, 250.475 379.692, 248 380.374 M 759.483 380.027 C 759.106 380.637, 756.413 391.118, 753.499 403.318 C 750.585 415.518, 745.845 434.853, 742.967 446.284 C 740.089 457.715, 737.958 467.292, 738.232 467.566 C 738.506 467.840, 743.076 469.114, 748.389 470.399 C 755.281 472.065, 758.255 472.414, 758.773 471.617 C 759.173 471.003, 761.342 463.525, 763.592 455 C 769.492 432.654, 779.658 395.330, 781.421 389.538 C 782.491 386.024, 782.612 384.378, 781.837 383.899 C 781.235 383.527, 776.862 382.471, 772.121 381.554 C 767.379 380.636, 762.750 379.667, 761.834 379.402 C 760.918 379.136, 759.860 379.418, 759.483 380.027 M 408.469 381.050 C 407.563 382.517, 409.044 400.909, 410.123 401.576 C 410.609 401.876, 413.130 401.803, 415.727 401.414 C 422.487 400.400, 426 396.668, 426 390.500 C 426 386.690, 425.470 385.316, 423.077 382.923 C 420.552 380.399, 419.401 380, 414.636 380 C 411.601 380, 408.826 380.472, 408.469 381.050 M 591.180 383.500 C 590.590 385.700, 588.792 392.750, 587.184 399.167 L 584.261 410.835 586.380 411.404 C 589.916 412.353, 599 412.067, 599 411.007 C 599 408.889, 593.902 383.392, 593.100 381.500 C 592.370 379.778, 592.103 380.055, 591.180 383.500 M 794.496 389.250 C 794.254 389.938, 789.301 409.363, 783.491 432.418 C 776.387 460.605, 773.281 474.556, 774.010 475.006 C 776.373 476.467, 822.851 489.210, 823.762 488.647 C 825.228 487.741, 828.495 471.091, 827.414 470.034 C 826.911 469.542, 820.668 467.727, 813.540 465.999 C 806.412 464.272, 800.284 462.676, 799.924 462.453 C 799.394 462.126, 802.636 448.166, 803.456 447.240 C 803.583 447.097, 809.603 448.511, 816.834 450.383 L 829.981 453.786 831.054 449.643 C 831.645 447.364, 832.547 443.925, 833.058 442 C 834.833 435.325, 834.947 435.429, 822.460 432.383 C 816.113 430.835, 810.427 429.264, 809.826 428.892 C 809.054 428.415, 809.251 426.096, 810.494 421.025 C 811.894 415.312, 812.590 413.931, 813.878 414.307 C 823.495 417.113, 841.715 422, 842.558 422 C 843.150 422, 844.404 419.413, 845.344 416.250 C 846.284 413.087, 847.568 408.799, 848.197 406.720 C 848.891 404.424, 848.979 402.593, 848.420 402.058 C 847.515 401.190, 798.451 388, 796.127 388 C 795.473 388, 794.739 388.563, 794.496 389.250 M 174 401.897 C 153.779 407.298, 149 408.985, 149 410.718 C 149 411.616, 153.250 428.360, 158.445 447.926 C 163.640 467.492, 168.684 486.538, 169.654 490.250 C 170.844 494.801, 171.907 497, 172.919 497 C 173.744 497, 178.600 495.814, 183.710 494.364 C 189.839 492.624, 193 491.243, 193 490.305 C 193 489.523, 191.650 483.536, 190 477 C 188.350 470.464, 187 464.523, 187 463.796 C 187 463.031, 189.675 461.709, 193.357 460.654 C 214.179 454.691, 221.267 442.088, 216.488 419.526 C 212.333 399.909, 200.236 394.890, 174 401.897 M 249.790 402.896 C 246.782 405.584, 246.524 406.319, 246.190 413.146 C 245.759 421.986, 248.803 438.045, 252.190 444.793 C 255.172 450.735, 258.672 453.254, 263.846 453.183 C 274.717 453.033, 277.176 445.297, 273.077 424.149 C 269.593 406.179, 265.577 400, 257.381 400 C 253.996 400, 252.313 400.642, 249.790 402.896 M 177.834 420.272 L 175.168 421.500 177.712 431.500 C 179.110 437, 180.592 441.872, 181.004 442.327 C 182.222 443.670, 189.951 440.848, 193.094 437.912 C 196.871 434.384, 197.136 427.986, 193.716 422.898 C 191.630 419.795, 190.957 419.480, 185.966 419.272 C 182.960 419.147, 179.300 419.597, 177.834 420.272 M 420.500 498.609 C 404.551 500.947, 394.216 504.735, 382.358 512.590 C 365.282 523.901, 353.598 540.956, 347.479 563.500 C 345.298 571.536, 344.452 592.512, 345.925 602 C 348.367 617.717, 356.898 638.466, 367.510 654.500 C 377.176 669.103, 412.585 708.284, 468.727 766.500 C 481.987 780.250, 497.162 795.775, 502.448 801 L 512.059 810.500 521.309 801 C 569.783 751.218, 640.190 674.451, 653.385 656.992 C 669.846 635.211, 678 611.364, 678 584.997 C 678 540.234, 647.346 504.778, 603.613 498.958 C 597.908 498.199, 592.490 498.183, 585.452 498.906 C 555.635 501.965, 533.947 516.835, 517.129 545.750 C 514.809 549.737, 512.525 553, 512.053 553 C 511.581 553, 508.391 548.439, 504.966 542.865 C 491.383 520.762, 473.316 506.579, 451.701 501.051 C 444.092 499.105, 426.504 497.728, 420.500 498.609 M 818.897 533.504 C 804.566 536.360, 787.543 545.651, 777.350 556.180 C 774.518 559.106, 768.218 566.735, 763.350 573.134 C 758.483 579.532, 738.075 605.836, 718 631.587 C 623.260 753.115, 619.594 757.940, 615.582 766.394 C 609.942 778.280, 608.535 784.860, 608.612 799 C 608.657 807.164, 609.257 813.755, 610.341 818 C 612.717 827.299, 619.978 841.425, 626.320 849.085 C 653.407 881.803, 705.607 886.923, 739.204 860.156 C 747.978 853.166, 750.833 849.829, 772.276 821.500 C 781.435 809.400, 804.988 778.350, 824.618 752.500 C 898.262 655.517, 899.582 653.625, 904.975 637.315 C 907.723 629.005, 908.300 625.564, 908.739 614.875 C 909.480 596.809, 906.244 583.171, 897.826 568.879 C 881.584 541.306, 850.240 527.258, 818.897 533.504 M 171.147 535.096 C 145.725 541.923, 125.492 562.636, 117.806 589.701 C 116.014 596.011, 115.591 600.078, 115.591 611 C 115.591 636.029, 119.353 644.352, 147.282 681.116 C 158.306 695.627, 191.476 739.675, 220.994 779 C 255.723 825.268, 276.751 852.411, 280.581 855.915 C 296.426 870.410, 314.217 877.258, 336 877.247 C 391.414 877.220, 429 826.452, 411.563 775.184 C 407.986 764.669, 406.149 761.700, 390.067 740.446 C 381.766 729.476, 369.721 713.525, 363.301 705 C 349.936 687.253, 330.449 662.011, 321.566 650.940 C 309.871 636.365, 285.388 605.305, 269.194 584.500 C 260.204 572.950, 250.385 560.919, 247.373 557.764 C 236.760 546.646, 223.254 538.774, 208.183 534.919 C 197.965 532.306, 181.240 532.385, 171.147 535.096 M 156.400 577.828 C 144.077 586.765, 138.424 600.378, 140.132 617 C 140.500 620.575, 141.576 625.430, 142.524 627.789 C 144.181 631.911, 154.338 645.334, 179.081 676.100 C 192.982 693.384, 193.265 693.645, 196.792 692.404 C 200.329 691.160, 201.723 687.161, 200.038 683.093 C 199.333 681.391, 190.706 669.130, 180.866 655.847 C 171.026 642.563, 161.624 628.950, 159.972 625.594 C 152.800 611.026, 154.119 595.190, 163.605 581.987 C 165.555 579.273, 166.865 576.590, 166.516 576.026 C 165.326 574.101, 160.307 574.995, 156.400 577.828 M 282.500 699.164 C 264.350 713.502, 242.863 730.385, 234.750 736.682 C 226.637 742.979, 220 748.447, 220 748.834 C 220 751.009, 285.168 835.528, 291.539 841.616 C 303.361 852.913, 318.053 858.375, 336.500 858.329 C 345.626 858.306, 348.863 857.854, 355.500 855.676 C 376.515 848.780, 391.377 833.298, 396.620 812.841 C 398.786 804.391, 398.054 790.963, 394.917 781.575 C 393.645 777.766, 390.379 771.241, 387.659 767.075 C 380.416 755.977, 352.059 718.104, 323.400 681.250 C 319.872 676.712, 316.651 673.021, 316.242 673.048 C 315.834 673.074, 300.650 684.826, 282.500 699.164 M 685.311 701.750 C 642.440 755.676, 635.946 764.323, 631.510 773.389 C 627.617 781.347, 626.025 788.483, 626.012 798.040 C 625.969 829.196, 648.017 853.867, 679.670 858.079 C 700.800 860.891, 720.351 854.626, 734.523 840.500 C 740.205 834.838, 760.346 809.537, 787.463 774 C 789.352 771.525, 794.323 765.115, 798.510 759.755 C 802.698 754.395, 805.865 749.591, 805.550 749.080 C 804.418 747.249, 709.861 673, 708.660 673 C 708.389 673, 697.882 685.938, 685.311 701.750 M 760.208 770.567 C 758.977 771.429, 755.651 775.591, 752.815 779.817 C 743.519 793.671, 729.983 810.821, 720.338 820.965 C 712.512 829.196, 709.526 831.590, 703.182 834.722 C 695.819 838.355, 695.500 838.657, 695.500 841.969 C 695.500 845.137, 695.812 845.499, 699.243 846.310 C 706.981 848.140, 721.040 838.837, 735.635 822.228 C 750.469 805.349, 766.029 782.696, 767.552 775.765 C 768.112 773.213, 767.820 772.272, 766.011 770.808 C 763.294 768.607, 763.022 768.596, 760.208 770.567" stroke="none" fill="#000000" fill-rule="evenodd"/>
</svg>